<svg width="1258" height="477" viewBox="0 0 1258 477" fill="none" xmlns="http://www.w3.org/2000/svg">
<g clip-path="url(#clip0)">
<path d="M226 132.059V151.388L253.33 157H257.558L291 120.835V104H276.227H253.33L238.557 112.106L226 132.059Z" fill="white" stroke="black"/>
<path d="M236 189.135C236 189.135 253.945 218.16 262.517 266.596C271.089 315.032 281.793 386.592 281.793 386.592C281.793 386.592 280.294 367.93 282.11 390.532L289.052 477C289.052 477 295.685 399.229 289.052 327.264C282.419 255.299 262.519 182 262.519 182L236 189.135Z" fill="#171715" stroke="#707070"/>
<path d="M183 174.359L188.486 180.227L218.834 193H236.092C236.092 193 255.583 191.849 268.314 184.566C281.045 177.283 287.015 163.863 287.015 163.863L295 148L264.137 151.832L258.93 155.58L272.407 163.863L268.316 169.793H236.094L218.836 163.863L193.024 169.797L183 174.359Z" fill="#232421" stroke="#707070"/>
<path d="M66.726 71.0273C50.284 57.6831 59.2742 57.0584 66.726 55.5779C74.1777 54.0975 83.6271 60.4894 96.5331 65.1063C109.439 69.7233 130.332 83.5751 130.332 83.5751L162.699 109.539L170.849 121.277C169.318 121.292 167.805 121.633 166.404 122.281C165.003 122.929 163.742 123.87 162.699 125.045C159.521 128.942 158.136 136.869 158.136 136.869C146.361 131.219 135.081 124.495 124.427 116.775C105.803 103.453 98.063 95.0143 83.6413 83.5781C69.2197 72.1418 83.1651 84.3714 66.726 71.0273Z" fill="white" stroke="#707070"/>
<path d="M138.518 77.9675C139.125 76.5938 140.021 75.3823 141.139 74.424C142.256 73.4657 143.566 72.7855 144.97 72.4344C149.929 71.0511 149.199 67.7738 158.353 72.4344C167.507 77.0949 181.584 91.0667 181.584 91.0667L199.669 109.437C199.669 109.437 192.191 113.072 187.669 114.283C185.553 114.851 176.722 114.418 173.608 114.283C170.692 114.158 158.351 100.647 158.351 100.647C158.351 100.647 143.472 91.9661 138.518 86.2961C133.563 80.626 138.518 77.9675 138.518 77.9675Z" fill="white" stroke="#707070"/>
<path d="M208.932 106.911H219.594C222.158 103.557 224.024 99.6779 225.074 95.5221C226.443 89.2521 226.443 89.1093 225.074 81.8309C223.705 74.5524 223.632 71.2206 219.594 66.4093C215.555 61.598 214.392 58.9435 208.932 57.9895C203.472 57.0356 195.65 60.5806 191.222 62.4379C186.794 64.2952 186.659 71.6123 186.659 71.6123V81.8309C187.828 86.5153 189.354 91.0938 191.222 95.5221C193.996 101.792 194.581 104.064 197.755 106.911C198.603 107.704 199.699 108.142 200.835 108.142C201.971 108.142 203.067 107.704 203.915 106.911H208.932Z" fill="white" stroke="#707070"/>
<path d="M263.479 31.1853C257.039 31.1853 255.86 32.0608 249.48 36.4329C243.1 40.8049 242.375 41.0766 237.966 48.6713C233.557 56.2661 234.415 54.2749 231.841 66.8099C229.267 79.3449 227.67 98.8132 227.67 98.8132H249.486C249.486 98.8132 257.045 70.2478 263.485 54.6528C269.925 39.0577 275.249 42.2993 275.249 36.4319C275.249 30.5645 269.924 31.1853 263.479 31.1853Z" fill="white" stroke="#707070"/>
<path d="M157.258 136.866C156.617 140.507 156.617 144.24 157.258 147.881C157.258 147.881 156.65 150.735 161.668 151.687C166.685 152.639 169.499 151.687 177.329 151.687H192.987V156.488L227.544 147.881H236.515V129.541C236.515 129.541 240.9 116.406 245.501 110.627C250.102 104.848 254.918 106.424 254.918 106.424H275.059V98.6198H251.166C251.166 98.6198 235.055 96.6683 227.549 98.6198C220.043 100.571 221.142 106.424 221.142 106.424C221.142 106.424 209.873 104.257 201.819 106.424C193.766 108.59 196.132 112.925 188.925 115.092C181.718 117.26 172.994 115.092 172.994 115.092C172.994 115.092 175.829 116.809 172.994 119.506C170.159 122.203 161.668 125.882 161.668 125.882C159.673 129.286 158.186 132.991 157.258 136.866Z" fill="#181817" stroke="#707070"/>
<path d="M279.449 27.9477C287.428 16.2466 284.962 22.5225 290.447 20.7148C295.932 18.9071 296.674 18.9061 301.39 20.7148C306.106 22.5235 307.333 22.4373 309.314 27.9477C311.294 33.4581 309.314 42.7574 309.314 42.7574C309.314 42.7574 303.637 53.68 295.074 67.5348C286.511 81.3896 278.967 90.5144 275.061 98.1756C271.154 105.837 279.448 98.1756 279.448 98.1756L316.831 34.7947C316.831 34.7947 329.404 18.3846 339.012 11.3302C348.62 4.27591 348.103 5.36469 355.265 6.57644C362.427 7.78819 367.654 16.1762 367.654 16.1762C367.654 16.1762 361.315 21.9544 348.609 34.7947C335.903 47.6351 316.832 67.5358 316.832 67.5358L279.449 125.42C279.449 125.42 280.546 114.982 279.449 110.22C278.352 105.457 275.061 106.37 275.061 106.37V98.1746H250.596C252.117 87.6762 254.78 77.3955 258.534 67.5338C263.927 53.4858 270.952 40.1899 279.449 27.9477Z" fill="white" stroke="#707070"/>
<path d="M354.366 31.1664C354.366 31.1664 360.556 24.95 367.374 22.8775C374.191 20.8051 381.636 22.8775 381.636 22.8775C384.615 21.6367 387.933 21.6367 390.913 22.8775C396.016 24.95 402.044 31.1664 402.044 31.1664C402.044 31.1664 390.864 32.867 371.819 50.3918C352.775 67.9166 349.224 79.6503 325.868 101.261C311.181 114.71 295.283 126.628 278.397 136.845L266.336 141.539L278.397 124.593C278.397 124.593 299.193 93.1243 312.066 75.6987C324.939 58.2731 319.315 66.0246 329.89 54.8907C340.465 43.7569 354.366 31.1664 354.366 31.1664Z" fill="white" stroke="#707070"/>
<path d="M390.526 21.9563C390.526 21.9563 401.699 10.2057 408.087 6.28887C414.475 2.37201 414.081 4.24219 416.078 6.28887C418.076 8.33556 418.913 7.80703 416.078 14.4776C413.244 21.1482 404.725 32.9722 404.725 32.9722C404.725 32.9722 405.842 31.5938 399.363 41.7063C392.885 51.8187 392.728 58.6857 378.812 73.424C364.896 88.1623 343.697 100.66 343.697 100.66L282.907 134.268L324.806 104.391L350.365 73.425" fill="white"/>
<path d="M390.526 21.9563C390.526 21.9563 401.699 10.2057 408.087 6.28887C414.475 2.37201 414.081 4.24219 416.078 6.28887C418.076 8.33556 418.913 7.80703 416.078 14.4776C413.244 21.1482 404.725 32.9722 404.725 32.9722C404.725 32.9722 405.842 31.5938 399.363 41.7063C392.885 51.8187 392.728 58.6857 378.812 73.424C364.896 88.1623 343.697 100.66 343.697 100.66L282.907 134.268L324.806 104.391L350.365 73.425" stroke="#707070"/>
<path d="M372.065 49.0214C378.57 40.3205 384.511 31.1704 389.846 21.6331L349.403 74.9312C357.432 66.7664 365 58.115 372.065 49.0214V49.0214Z" stroke="#707070"/>
<path d="M266.335 141.543L347.505 99.8167C355.243 92.3828 364.003 86.213 373.491 81.5145C389.115 73.8167 397.54 72.1468 410.003 69.0202C422.465 65.8937 419.132 67.8472 423.34 69.0202C427.549 70.1933 426.837 73.7135 426.837 73.7135C426.837 73.7135 407.02 80.7232 389.58 89.149C372.139 97.5747 376.445 97.1622 357.074 107.417C337.702 117.673 334.773 121.637 312.095 130.168C297.241 135.553 281.912 139.364 266.335 141.543Z" fill="white" stroke="#707070"/>
<path d="M291.077 136.866C302.688 138.554 314.464 138.554 326.075 136.866C344.672 134.025 354.589 128.641 365.468 125.503L369.589 124.314C369.589 124.314 395.54 112.774 407.514 105.293C419.487 97.8127 416.43 99.3011 417.482 94.3906C418.533 89.4802 419.054 86.5975 411.718 85.6505C404.381 84.7035 388.142 90.6086 388.142 90.6086L352.802 110.053L326.073 124.315L291.077 136.866Z" fill="white" stroke="#707070"/>
<path d="M258.574 149.473C260.954 150.927 277.628 149.82 277.628 149.82L281.423 149.473C281.423 149.473 288.55 146.449 298.682 149.473C308.815 152.496 321.952 161.565 321.952 161.565C321.952 161.565 327.85 166.166 335.109 166.166C342.367 166.166 350.984 161.565 350.984 161.565L399.239 141.267C399.239 141.267 411.769 136.549 395.736 134.976C379.703 133.404 360.508 134.976 335.109 134.976C309.709 134.976 310.912 133.404 294.135 134.976C277.358 136.549 268 141.267 268 141.267C268 141.267 255.219 147.421 258.574 149.473Z" fill="white" stroke="#707070"/>
<path d="M190.072 156.488L178.04 173.532L194.456 168.636C194.456 168.636 206.585 166.882 218.122 163.851C225.729 161.792 233.233 159.335 240.605 156.488C240.605 156.488 242.717 158.216 246.963 156.488C251.208 154.761 257.589 149.578 257.589 149.578H214.094L190.072 156.488Z" fill="white" stroke="#707070"/>
<path d="M250.596 156.488L264.058 161.225C264.058 161.225 267.423 163.506 264.058 166.038C260.693 168.569 256.961 170.011 250.596 171.336C244.231 172.661 245.895 171.336 238.595 171.336C231.296 171.336 228.173 172.661 221.397 171.336C214.622 170.011 211.508 166.038 211.508 166.038L238.595 156.488H250.596Z" fill="white" stroke="#707070"/>
<path d="M191.248 171.924C191.3 171.469 167.8 202.774 167.8 202.774C167.8 202.774 156.056 220.337 152.141 231.305C148.226 242.274 148.226 241.758 152.141 246.646C154.036 249.012 161.401 250.578 161.401 250.578C161.401 250.578 174.585 255.75 180.792 250.855C186.998 245.96 191.311 251.038 200.585 231.304C209.859 211.571 210.79 194.84 213.175 178.299C215.559 161.758 209.724 167.339 209.228 166.353C208.731 165.367 191.192 172.379 191.248 171.924Z" fill="white" stroke="#707070"/>
<path d="M185.049 164.52C185.049 164.52 169.319 163.067 156.134 168.685C142.95 174.304 128.731 186.7 128.731 186.7C128.731 186.7 127.289 189.982 128.731 191.077C130.173 192.172 134.495 191.077 134.495 191.077L152.289 182.259L177.394 172.839L185.049 164.52Z" fill="white" stroke="#707070"/>
<path d="M156.57 149.578L130.556 153.998C130.556 153.998 127.258 155.419 126.158 157.698C125.058 159.977 124.656 160.986 126.158 163.112C127.659 165.238 130.562 166.323 136.56 167.394C142.557 168.465 142.767 168.464 150.147 167.394C157.527 166.324 159.361 164.183 166.081 163.112C169.701 162.434 173.407 162.434 177.027 163.112C177.027 163.112 178.379 165.393 182.096 163.112C185.812 160.832 190.774 153.998 190.774 153.998L156.57 149.578Z" fill="white" stroke="#707070"/>
<path d="M125.177 161.555C125.177 161.555 80.9681 165.501 56.2334 172.318C31.4986 179.136 26.2391 188.825 26.2391 188.825C26.2391 188.825 17.8821 196.46 19.2882 202.672C20.6942 208.883 20.697 210.93 31.8643 213.679C43.0316 216.427 43.9435 218.059 63.9592 213.679C83.9749 209.298 111.926 196.155 111.926 196.155L132.545 182.55L153.975 168.648L179.222 161.558L137.898 168.648L125.177 161.555Z" fill="white" stroke="black"/>
<path d="M67.3969 168.197C67.3969 168.197 52.9648 170.651 45.0963 168.197C37.2278 165.744 35.9096 162.774 35.9096 158.38C35.9096 153.986 32.283 152.567 45.0963 150.63C57.9097 148.692 87.165 150.63 87.165 150.63L128.891 158.38L67.3969 168.197Z" fill="white" stroke="#707070"/>
<path d="M125.177 156.488C114.096 158.954 98.8747 150.719 81.9111 149.211C54.4134 146.767 34.8815 152.024 25.4217 149.211C15.9619 146.398 26.6795 139.283 44.0711 137.958C61.4627 136.633 69.419 141.1 94.99 143.908C120.561 146.716 152.572 149.206 152.572 149.206C152.572 149.206 154.571 149.949 125.177 156.488Z" fill="white" stroke="#707070"/>
<path d="M35.4315 134.268C36.377 132.384 37.6974 130.735 39.3033 129.433C40.9092 128.131 42.763 127.207 44.7391 126.722C46.4712 126.252 49.3212 124.21 63.2496 126.722C81.7959 130.067 95.5892 135.448 118.925 140.1C142.262 144.752 156.593 145.341 156.593 145.341V149.765C156.593 149.765 117.343 147.753 95.901 145.341C74.4594 142.928 63.2486 140.1 63.2486 140.1L35.4315 134.268Z" fill="white" stroke="#707070"/>
<path d="M55.3942 125.494L39.4701 120.629L25.7818 117.044C25.7818 117.044 15 115.266 15 113C15 110.734 25.7818 107.981 25.7818 107.981C25.7818 107.981 48.8279 108.622 65.7413 113C82.6548 117.378 74.9072 119.087 93.4356 125.494C111.964 131.902 139.85 138.628 139.85 138.628L154.851 143.995L115.218 138.628C115.218 138.628 87.1376 132.982 72.1802 129.698C57.2227 126.414 55.3942 125.494 55.3942 125.494Z" fill="white" stroke="#707070"/>
<path d="M26.2996 104.44C19.0963 103.448 15.5178 104.44 15.5178 104.44C15.5178 104.44 11.738 97.7661 26.2996 97.7661C40.8611 97.7661 53.0584 100.08 73.7771 104.44C94.4958 108.799 88.5182 106.635 109.174 115.201C129.829 123.766 156.382 138.702 156.382 138.702V142.65L73.7761 115.201L44.329 108.409C44.329 108.409 33.5066 105.432 26.2996 104.44Z" fill="white" stroke="#707070"/>
</g>
<path d="M454.75 273.75C442.917 273.75 433.333 270.75 426 264.75C418.833 258.917 413.583 251.333 410.25 242C407.083 232.667 405.5 222.917 405.5 212.75C405.5 199.583 407.5 186.333 411.5 173C415.5 159.667 420.917 147 427.75 135C434.75 122.833 442.667 112.083 451.5 102.75C460.333 93.25 469.583 85.8333 479.25 80.5C489.083 75 498.75 72.25 508.25 72.25C515.083 72.25 520.583 73.9167 524.75 77.25C529.083 80.4167 531.25 85.9167 531.25 93.75C531.25 98.5833 530.417 104.083 528.75 110.25C527.083 116.25 524.833 122.083 522 127.75C519.167 133.25 516 137.833 512.5 141.5C509.167 145.167 505.75 147 502.25 147C500.917 147 499.5 146.583 498 145.75C496.667 144.917 495.5 143.417 494.5 141.25C497 138.417 499.75 134.917 502.75 130.75C505.917 126.417 508.917 121.917 511.75 117.25C514.583 112.417 516.833 107.75 518.5 103.25C520.333 98.5833 521.25 94.5 521.25 91C521.25 87.6667 520.25 85 518.25 83C516.417 80.8333 513.333 79.75 509 79.75C501.833 79.75 494.333 82.6667 486.5 88.5C478.833 94.3333 471.333 102.167 464 112C456.833 121.667 450.333 132.5 444.5 144.5C438.667 156.5 434 168.75 430.5 181.25C427.167 193.75 425.5 205.667 425.5 217C425.5 225.167 426.667 233 429 240.5C431.333 247.833 435.083 253.75 440.25 258.25C445.583 262.917 452.417 265.25 460.75 265.25C469.583 265.25 478.333 262.75 487 257.75C495.833 252.75 503.917 246.167 511.25 238C518.583 229.833 524.417 221 528.75 211.5L532.25 214C526.75 224.833 520.083 234.833 512.25 244C504.417 253 495.667 260.167 486 265.5C476.333 271 465.917 273.75 454.75 273.75ZM535.535 263.75C530.368 263.75 526.035 262 522.535 258.5C518.868 255.167 517.035 250 517.035 243C517.035 237 518.368 230.583 521.035 223.75C523.702 216.75 527.368 209.917 532.035 203.25C536.702 196.417 541.952 190.25 547.785 184.75C553.785 179.083 560.035 174.583 566.535 171.25C573.202 167.917 579.785 166.25 586.285 166.25C592.785 166.25 598.202 168 602.535 171.5C606.868 174.833 609.035 179.333 609.035 185C609.035 189.167 607.868 192 605.535 193.5C603.368 195 600.452 195.75 596.785 195.75C597.618 192.75 598.035 189.833 598.035 187C598.035 183.167 597.118 179.917 595.285 177.25C593.452 174.417 590.285 173 585.785 173C581.118 173 576.368 174.667 571.535 178C566.702 181.167 562.035 185.5 557.535 191C553.035 196.333 549.035 202.167 545.535 208.5C542.035 214.833 539.285 221.083 537.285 227.25C535.285 233.417 534.285 238.917 534.285 243.75C534.285 250.25 536.535 253.5 541.035 253.5C544.868 253.5 549.035 251.75 553.535 248.25C558.035 244.583 562.618 240 567.285 234.5C572.118 228.833 576.702 223 581.035 217C585.368 211 589.202 205.5 592.535 200.5C593.202 199.5 593.618 199 593.785 199C595.285 199.167 597.285 199.833 599.785 201C602.285 202 603.535 203.417 603.535 205.25C603.535 206.75 602.785 208.833 601.285 211.5C599.785 214 598.118 216.917 596.285 220.25C594.452 223.583 592.785 227 591.285 230.5C589.785 233.833 589.035 237 589.035 240C589.035 242.5 589.702 245 591.035 247.5C592.368 249.833 594.535 251 597.535 251C602.035 251 607.952 247.75 615.285 241.25C622.618 234.583 630.035 224.667 637.535 211.5L640.035 214C636.535 223 632.035 230.917 626.535 237.75C621.035 244.583 615.118 249.917 608.785 253.75C602.618 257.583 596.535 259.5 590.535 259.5C584.368 259.5 579.785 257.667 576.785 254C573.952 250.333 572.535 246.333 572.535 242C572.535 239.833 572.785 237.417 573.285 234.75C566.118 244.417 559.535 251.667 553.535 256.5C547.702 261.333 541.702 263.75 535.535 263.75ZM758.422 259.75C752.589 259.75 748.339 257.917 745.672 254.25C743.005 250.75 741.672 246.5 741.672 241.5C741.672 237.333 742.255 233.167 743.422 229C744.755 224.833 746.005 220.75 747.172 216.75C748.505 212.75 749.172 209.167 749.172 206C749.172 202.667 748.422 200.333 746.922 199C745.422 197.667 743.755 197 741.922 197C737.755 197 733.172 200.25 728.172 206.75C723.339 213.25 717.005 222.417 709.172 234.25C706.505 238.25 704.255 242.333 702.422 246.5C700.589 250.5 698.839 254.167 697.172 257.5C695.839 257.5 694.172 257.333 692.172 257C690.172 256.667 688.339 256.083 686.672 255.25C685.172 254.583 684.422 253.667 684.422 252.5C684.422 251.333 685.172 248.583 686.672 244.25C688.339 239.75 690.172 234.583 692.172 228.75C694.339 222.75 696.172 216.75 697.672 210.75C699.339 204.583 700.172 199.333 700.172 195C700.172 192.167 699.672 189.917 698.672 188.25C697.839 186.417 696.255 185.5 693.922 185.5C690.255 185.5 685.839 187.75 680.672 192.25C675.505 196.583 670.172 202.333 664.672 209.5C659.172 216.667 653.922 224.583 648.922 233.25C644.089 241.75 640.172 250.25 637.172 258.75C634.839 258.75 632.005 258.167 628.672 257C625.339 255.833 623.672 254.667 623.672 253.5C623.672 252.5 624.589 249.583 626.422 244.75C628.089 239.75 630.089 233.833 632.422 227C634.589 220 636.505 212.917 638.172 205.75C640.005 198.583 640.922 192.25 640.922 186.75C641.922 185.583 643.505 184.417 645.672 183.25C647.839 182.083 650.089 181.5 652.422 181.5C656.922 181.5 659.172 183.667 659.172 188C659.172 190.167 658.505 193.917 657.172 199.25C656.005 204.417 654.505 210.167 652.672 216.5C656.005 211.167 659.755 205.75 663.922 200.25C668.255 194.583 672.755 189.417 677.422 184.75C682.089 180.083 686.755 176.333 691.422 173.5C696.255 170.5 700.922 169 705.422 169C710.589 169 714.089 170.917 715.922 174.75C717.922 178.417 718.922 182.833 718.922 188C718.922 192.167 718.422 196.583 717.422 201.25C716.589 205.75 715.589 210 714.422 214C713.255 217.833 712.172 220.917 711.172 223.25C714.672 216.917 718.505 210.833 722.672 205C727.005 199 731.672 194.167 736.672 190.5C741.672 186.667 747.005 184.75 752.672 184.75C758.005 184.75 761.672 186.333 763.672 189.5C765.839 192.667 766.922 196.417 766.922 200.75C766.922 205.083 766.172 209.833 764.672 215C763.172 220.167 761.589 225.167 759.922 230C758.422 234.833 757.672 239 757.672 242.5C757.672 244.667 758.172 246.667 759.172 248.5C760.339 250.167 762.339 251 765.172 251C769.839 251 774.172 248.917 778.172 244.75C782.339 240.417 786.172 235.25 789.672 229.25C793.172 223.083 796.172 217.167 798.672 211.5L801.672 215C799.005 222 795.589 229 791.422 236C787.255 242.833 782.339 248.5 776.672 253C771.172 257.5 765.089 259.75 758.422 259.75ZM811.293 260C804.126 260 799.043 257.75 796.043 253.25C793.043 248.917 791.543 243.583 791.543 237.25C791.543 232.083 792.376 226.75 794.043 221.25C795.71 215.75 797.876 210.583 800.543 205.75C803.376 200.917 806.46 197 809.793 194C813.293 191 816.793 189.5 820.293 189.5C821.793 189.5 823.543 189.917 825.543 190.75C824.043 192.083 822.21 194.583 820.043 198.25C818.043 201.75 816.126 205.833 814.293 210.5C812.46 215 810.876 219.5 809.543 224C808.376 228.5 807.793 232.333 807.793 235.5C807.793 240.5 808.626 244.167 810.293 246.5C811.96 248.667 814.126 249.75 816.793 249.75C820.293 249.75 824.46 247.917 829.293 244.25C834.126 240.417 838.876 235.583 843.543 229.75C838.876 225.917 835.21 220.917 832.543 214.75C830.043 208.417 828.793 202 828.793 195.5C828.793 190 829.71 184.833 831.543 180C833.543 175.167 836.376 171.333 840.043 168.5C843.71 165.5 848.126 164 853.293 164C860.126 164 864.71 165.833 867.043 169.5C869.376 173.167 870.543 177.75 870.543 183.25C870.543 189.75 868.96 197 865.793 205C862.626 212.833 858.626 220.417 853.793 227.75C856.793 229.417 859.96 230.25 863.293 230.25C867.126 230.25 871.793 229 877.293 226.5C882.793 223.833 887.043 219.083 890.043 212.25L893.043 214.75C889.71 222.583 884.96 228.167 878.793 231.5C872.793 234.667 867.043 236.25 861.543 236.25C857.043 236.25 853.043 235.417 849.543 233.75C843.876 241.25 837.626 247.5 830.793 252.5C824.126 257.5 817.626 260 811.293 260ZM848.043 223.25C852.21 217.083 855.626 210.667 858.293 204C861.126 197.167 862.543 190.75 862.543 184.75C862.543 179.917 861.793 176.417 860.293 174.25C858.96 171.917 857.21 170.75 855.043 170.75C851.71 170.75 848.293 173.167 844.793 178C841.293 182.833 839.543 188.917 839.543 196.25C839.543 201.083 840.21 206 841.543 211C843.043 215.833 845.21 219.917 848.043 223.25ZM1011.35 259.75C1005.52 259.75 1001.27 257.917 998.602 254.25C995.935 250.75 994.602 246.5 994.602 241.5C994.602 237.333 995.185 233.167 996.352 229C997.685 224.833 998.935 220.75 1000.1 216.75C1001.43 212.75 1002.1 209.167 1002.1 206C1002.1 202.667 1001.35 200.333 999.852 199C998.352 197.667 996.685 197 994.852 197C990.685 197 986.102 200.25 981.102 206.75C976.268 213.25 969.935 222.417 962.102 234.25C959.435 238.25 957.185 242.333 955.352 246.5C953.518 250.5 951.768 254.167 950.102 257.5C948.768 257.5 947.102 257.333 945.102 257C943.102 256.667 941.268 256.083 939.602 255.25C938.102 254.583 937.352 253.667 937.352 252.5C937.352 251.333 938.102 248.583 939.602 244.25C941.268 239.75 943.102 234.583 945.102 228.75C947.268 222.75 949.102 216.75 950.602 210.75C952.268 204.583 953.102 199.333 953.102 195C953.102 192.167 952.602 189.917 951.602 188.25C950.768 186.417 949.185 185.5 946.852 185.5C943.185 185.5 938.768 187.75 933.602 192.25C928.435 196.583 923.102 202.333 917.602 209.5C912.102 216.667 906.852 224.583 901.852 233.25C897.018 241.75 893.102 250.25 890.102 258.75C887.768 258.75 884.935 258.167 881.602 257C878.268 255.833 876.602 254.667 876.602 253.5C876.602 252.5 877.518 249.583 879.352 244.75C881.018 239.75 883.018 233.833 885.352 227C887.518 220 889.435 212.917 891.102 205.75C892.935 198.583 893.852 192.25 893.852 186.75C894.852 185.583 896.435 184.417 898.602 183.25C900.768 182.083 903.018 181.5 905.352 181.5C909.852 181.5 912.102 183.667 912.102 188C912.102 190.167 911.435 193.917 910.102 199.25C908.935 204.417 907.435 210.167 905.602 216.5C908.935 211.167 912.685 205.75 916.852 200.25C921.185 194.583 925.685 189.417 930.352 184.75C935.018 180.083 939.685 176.333 944.352 173.5C949.185 170.5 953.852 169 958.352 169C963.518 169 967.018 170.917 968.852 174.75C970.852 178.417 971.852 182.833 971.852 188C971.852 192.167 971.352 196.583 970.352 201.25C969.518 205.75 968.518 210 967.352 214C966.185 217.833 965.102 220.917 964.102 223.25C967.602 216.917 971.435 210.833 975.602 205C979.935 199 984.602 194.167 989.602 190.5C994.602 186.667 999.935 184.75 1005.6 184.75C1010.93 184.75 1014.6 186.333 1016.6 189.5C1018.77 192.667 1019.85 196.417 1019.85 200.75C1019.85 205.083 1019.1 209.833 1017.6 215C1016.1 220.167 1014.52 225.167 1012.85 230C1011.35 234.833 1010.6 239 1010.6 242.5C1010.6 244.667 1011.1 246.667 1012.1 248.5C1013.27 250.167 1015.27 251 1018.1 251C1022.77 251 1027.1 248.917 1031.1 244.75C1035.27 240.417 1039.1 235.25 1042.6 229.25C1046.1 223.083 1049.1 217.167 1051.6 211.5L1054.6 215C1051.93 222 1048.52 229 1044.35 236C1040.18 242.833 1035.27 248.5 1029.6 253C1024.1 257.5 1018.02 259.75 1011.35 259.75ZM1094.97 144C1092.31 144 1089.89 143.333 1087.72 142C1085.72 140.667 1084.72 138.583 1084.72 135.75C1084.72 132.25 1086.72 129.25 1090.72 126.75C1094.89 124.083 1098.97 122.75 1102.97 122.75C1105.47 122.75 1107.47 123.333 1108.97 124.5C1110.47 125.667 1111.22 127.667 1111.22 130.5C1111.22 133.667 1109.47 136.75 1105.97 139.75C1102.64 142.583 1098.97 144 1094.97 144ZM1064.97 258.5C1058.47 258.5 1053.64 256.417 1050.47 252.25C1047.31 248.25 1045.72 243.333 1045.72 237.5C1045.72 233.667 1046.39 228.833 1047.72 223C1049.22 217.167 1051.14 211.083 1053.47 204.75C1055.81 198.25 1058.47 192.167 1061.47 186.5C1064.64 180.833 1067.97 176.25 1071.47 172.75C1074.97 169.083 1078.39 167.25 1081.72 167.25C1083.22 167.25 1084.47 167.75 1085.47 168.75C1086.64 169.583 1087.22 170.917 1087.22 172.75C1087.22 174.75 1085.89 178 1083.22 182.5C1080.72 187 1077.72 192.167 1074.22 198C1070.72 203.833 1067.64 210 1064.97 216.5C1062.47 222.833 1061.22 228.917 1061.22 234.75C1061.22 240.75 1062.22 244.75 1064.22 246.75C1066.22 248.75 1069.31 249.75 1073.47 249.75C1079.14 249.75 1085.14 246.917 1091.47 241.25C1097.97 235.583 1104.81 225.667 1111.97 211.5L1114.22 214C1109.39 228.333 1102.39 239.333 1093.22 247C1084.22 254.667 1074.81 258.5 1064.97 258.5ZM1128.03 259.5C1120.86 259.5 1115.69 257 1112.53 252C1109.53 247.167 1108.03 241.083 1108.03 233.75C1108.03 225.75 1109.53 216.25 1112.53 205.25C1115.53 194.25 1119.44 182.667 1124.28 170.5C1129.28 158.333 1134.69 146.5 1140.53 135C1146.36 123.333 1152.19 112.75 1158.03 103.25C1163.86 93.75 1169.19 86.1667 1174.03 80.5C1179.03 74.8333 1182.94 72 1185.78 72C1187.61 72 1189.11 73.0833 1190.28 75.25C1191.44 77.25 1192.36 79.75 1193.03 82.75C1193.69 85.5833 1194.03 88.1667 1194.03 90.5C1194.03 95 1192.86 100.917 1190.53 108.25C1188.36 115.417 1185.19 123.5 1181.03 132.5C1177.03 141.333 1172.19 150.333 1166.53 159.5C1161.03 168.5 1154.94 177.167 1148.28 185.5C1141.78 193.833 1134.86 201 1127.53 207C1126.53 211.5 1125.69 215.917 1125.03 220.25C1124.53 224.417 1124.28 228.417 1124.28 232.25C1124.28 245.083 1127.94 251.5 1135.28 251.5C1139.78 251.5 1144.19 249.5 1148.53 245.5C1153.03 241.5 1157.19 236.5 1161.03 230.5C1165.03 224.333 1168.44 218 1171.28 211.5L1175.03 213.5C1168.36 227.667 1161.11 238.917 1153.28 247.25C1145.44 255.417 1137.03 259.5 1128.03 259.5ZM1129.78 198.5C1135.61 192.667 1141.28 186 1146.78 178.5C1152.28 170.833 1157.36 162.917 1162.03 154.75C1166.86 146.583 1171.11 138.667 1174.78 131C1178.44 123.333 1181.28 116.5 1183.28 110.5C1185.28 104.333 1186.28 99.5833 1186.28 96.25C1186.28 94.5833 1186.03 93.5 1185.53 93C1185.19 92.5 1184.86 92.25 1184.53 92.25C1183.19 92.25 1180.86 94.4167 1177.53 98.75C1174.36 102.917 1170.61 108.583 1166.28 115.75C1161.94 122.917 1157.53 131.083 1153.03 140.25C1148.53 149.417 1144.19 159 1140.03 169C1136.03 179 1132.61 188.833 1129.78 198.5ZM1193.36 263C1183.19 263 1175.52 260.167 1170.36 254.5C1165.36 249 1162.86 242.167 1162.86 234C1162.86 226.5 1164.69 218.583 1168.36 210.25C1172.19 201.917 1177.19 194.083 1183.36 186.75C1189.69 179.417 1196.61 173.5 1204.11 169C1211.61 164.333 1219.02 162 1226.36 162C1230.19 162 1233.69 163 1236.86 165C1240.19 167 1241.86 171.083 1241.86 177.25C1241.86 183.583 1239.94 189.583 1236.11 195.25C1232.44 200.75 1227.52 205.667 1221.36 210C1215.36 214.333 1208.69 217.917 1201.36 220.75C1194.19 223.417 1187.02 225.083 1179.86 225.75C1179.52 227.417 1179.27 229 1179.11 230.5C1178.94 232 1178.86 233.417 1178.86 234.75C1178.86 239.917 1180.19 244.75 1182.86 249.25C1185.69 253.583 1190.94 255.75 1198.61 255.75C1205.77 255.75 1212.86 253.75 1219.86 249.75C1226.86 245.583 1233.36 240.167 1239.36 233.5C1245.36 226.833 1250.44 219.5 1254.61 211.5L1257.61 213.75C1253.11 223.75 1247.36 232.417 1240.36 239.75C1233.52 247.083 1226.02 252.75 1217.86 256.75C1209.86 260.917 1201.69 263 1193.36 263ZM1181.11 221C1185.61 219.5 1190.69 217.333 1196.36 214.5C1202.02 211.5 1207.44 208 1212.61 204C1217.94 200 1222.27 195.583 1225.61 190.75C1229.11 185.917 1230.86 180.833 1230.86 175.5C1230.86 173.667 1230.52 172.25 1229.86 171.25C1229.19 170.25 1227.77 169.75 1225.61 169.75C1221.61 169.75 1217.36 171.333 1212.86 174.5C1208.36 177.5 1204.02 181.5 1199.86 186.5C1195.69 191.5 1191.94 197 1188.61 203C1185.27 209 1182.77 215 1181.11 221Z" fill="black"/>
<path d="M610.509 320.312L611.466 326.874L612.867 320.961L622.711 286.234H628.248L637.853 320.961L639.22 326.977L640.279 320.277L648.004 286.234H654.601L642.535 336H636.554L626.3 299.735L625.514 295.941L624.728 299.735L614.098 336H608.116L596.085 286.234H602.647L610.509 320.312ZM675.177 336.684C670.164 336.684 666.085 335.043 662.94 331.762C659.796 328.458 658.224 324.049 658.224 318.534V317.372C658.224 313.703 658.919 310.434 660.309 307.562C661.721 304.669 663.681 302.413 666.188 300.795C668.717 299.154 671.451 298.334 674.391 298.334C679.199 298.334 682.936 299.918 685.602 303.085C688.268 306.252 689.601 310.787 689.601 316.688V319.32H664.547C664.638 322.966 665.698 325.917 667.726 328.173C669.776 330.406 672.374 331.522 675.519 331.522C677.752 331.522 679.643 331.067 681.192 330.155C682.742 329.244 684.098 328.036 685.26 326.532L689.122 329.54C686.023 334.302 681.375 336.684 675.177 336.684ZM674.391 303.529C671.839 303.529 669.697 304.464 667.965 306.332C666.233 308.178 665.162 310.775 664.752 314.125H683.277V313.646C683.095 310.434 682.229 307.95 680.68 306.195C679.13 304.418 677.034 303.529 674.391 303.529ZM728.258 317.919C728.258 323.57 726.959 328.116 724.361 331.557C721.764 334.975 718.277 336.684 713.902 336.684C709.231 336.684 705.619 335.032 703.067 331.728L702.76 336H696.949V283.5H703.272V303.085C705.825 299.918 709.345 298.334 713.834 298.334C718.323 298.334 721.843 300.032 724.396 303.427C726.97 306.822 728.258 311.47 728.258 317.372V317.919ZM721.935 317.201C721.935 312.895 721.103 309.568 719.439 307.221C717.776 304.874 715.383 303.7 712.262 303.7C708.092 303.7 705.095 305.637 703.272 309.511V325.507C705.209 329.381 708.229 331.317 712.33 331.317C715.361 331.317 717.719 330.144 719.405 327.797C721.091 325.45 721.935 321.918 721.935 317.201ZM749.415 317.44H732.735V312.279H749.415V317.44ZM754.063 317.201C754.063 311.527 755.408 306.97 758.097 303.529C760.785 300.066 764.306 298.334 768.658 298.334C772.988 298.334 776.417 299.815 778.946 302.777V283.5H785.27V336H779.459L779.151 332.035C776.622 335.134 773.102 336.684 768.59 336.684C764.306 336.684 760.808 334.929 758.097 331.42C755.408 327.911 754.063 323.331 754.063 317.68V317.201ZM760.387 317.919C760.387 322.112 761.253 325.393 762.984 327.763C764.716 330.132 767.109 331.317 770.162 331.317C774.173 331.317 777.101 329.517 778.946 325.917V308.93C777.055 305.443 774.15 303.7 770.23 303.7C767.132 303.7 764.716 304.896 762.984 307.289C761.253 309.682 760.387 313.225 760.387 317.919ZM810.46 336.684C805.447 336.684 801.368 335.043 798.224 331.762C795.079 328.458 793.507 324.049 793.507 318.534V317.372C793.507 313.703 794.202 310.434 795.592 307.562C797.005 304.669 798.964 302.413 801.471 300.795C804 299.154 806.734 298.334 809.674 298.334C814.482 298.334 818.219 299.918 820.885 303.085C823.551 306.252 824.884 310.787 824.884 316.688V319.32H799.83C799.921 322.966 800.981 325.917 803.009 328.173C805.06 330.406 807.657 331.522 810.802 331.522C813.035 331.522 814.926 331.067 816.476 330.155C818.025 329.244 819.381 328.036 820.543 326.532L824.405 329.54C821.306 334.302 816.658 336.684 810.46 336.684ZM809.674 303.529C807.122 303.529 804.98 304.464 803.248 306.332C801.516 308.178 800.445 310.775 800.035 314.125H818.561V313.646C818.378 310.434 817.512 307.95 815.963 306.195C814.413 304.418 812.317 303.529 809.674 303.529ZM843.956 327.421L853.116 299.018H859.576L846.314 336H841.495L828.097 299.018H834.557L843.956 327.421ZM880.528 336.684C875.515 336.684 871.437 335.043 868.292 331.762C865.147 328.458 863.575 324.049 863.575 318.534V317.372C863.575 313.703 864.27 310.434 865.66 307.562C867.073 304.669 869.033 302.413 871.539 300.795C874.068 299.154 876.803 298.334 879.742 298.334C884.55 298.334 888.287 299.918 890.953 303.085C893.619 306.252 894.952 310.787 894.952 316.688V319.32H869.898C869.99 322.966 871.049 325.917 873.077 328.173C875.128 330.406 877.726 331.522 880.87 331.522C883.103 331.522 884.994 331.067 886.544 330.155C888.093 329.244 889.449 328.036 890.611 326.532L894.474 329.54C891.375 334.302 886.726 336.684 880.528 336.684ZM879.742 303.529C877.19 303.529 875.048 304.464 873.316 306.332C871.585 308.178 870.514 310.775 870.104 314.125H888.629V313.646C888.447 310.434 887.581 307.95 886.031 306.195C884.482 304.418 882.385 303.529 879.742 303.529ZM909.171 336H902.848V283.5H909.171V336ZM917.647 317.167C917.647 313.544 918.354 310.285 919.767 307.392C921.202 304.498 923.185 302.265 925.714 300.692C928.266 299.12 931.171 298.334 934.43 298.334C939.465 298.334 943.533 300.077 946.632 303.563C949.754 307.05 951.314 311.687 951.314 317.475V317.919C951.314 321.519 950.619 324.755 949.229 327.626C947.862 330.474 945.891 332.696 943.316 334.291C940.764 335.886 937.825 336.684 934.498 336.684C929.485 336.684 925.418 334.94 922.296 331.454C919.197 327.968 917.647 323.354 917.647 317.611V317.167ZM924.005 317.919C924.005 322.021 924.951 325.313 926.842 327.797C928.756 330.281 931.308 331.522 934.498 331.522C937.711 331.522 940.263 330.269 942.154 327.763C944.046 325.233 944.991 321.701 944.991 317.167C944.991 313.111 944.023 309.83 942.086 307.323C940.172 304.794 937.62 303.529 934.43 303.529C931.308 303.529 928.79 304.771 926.876 307.255C924.962 309.739 924.005 313.293 924.005 317.919ZM990.484 317.919C990.484 323.547 989.197 328.082 986.622 331.522C984.047 334.963 980.561 336.684 976.163 336.684C971.674 336.684 968.142 335.259 965.567 332.411V350.219H959.244V299.018H965.021L965.328 303.119C967.903 299.929 971.48 298.334 976.061 298.334C980.504 298.334 984.013 300.009 986.588 303.358C989.186 306.708 990.484 311.368 990.484 317.338V317.919ZM984.161 317.201C984.161 313.031 983.272 309.739 981.495 307.323C979.718 304.908 977.28 303.7 974.181 303.7C970.353 303.7 967.481 305.398 965.567 308.793V326.464C967.459 329.836 970.353 331.522 974.249 331.522C977.28 331.522 979.684 330.326 981.461 327.934C983.261 325.518 984.161 321.941 984.161 317.201ZM1013.9 336.684C1008.88 336.684 1004.81 335.043 1001.66 331.762C998.517 328.458 996.944 324.049 996.944 318.534V317.372C996.944 313.703 997.639 310.434 999.029 307.562C1000.44 304.669 1002.4 302.413 1004.91 300.795C1007.44 299.154 1010.17 298.334 1013.11 298.334C1017.92 298.334 1021.66 299.918 1024.32 303.085C1026.99 306.252 1028.32 310.787 1028.32 316.688V319.32H1003.27C1003.36 322.966 1004.42 325.917 1006.45 328.173C1008.5 330.406 1011.09 331.522 1014.24 331.522C1016.47 331.522 1018.36 331.067 1019.91 330.155C1021.46 329.244 1022.82 328.036 1023.98 326.532L1027.84 329.54C1024.74 334.302 1020.1 336.684 1013.9 336.684ZM1013.11 303.529C1010.56 303.529 1008.42 304.464 1006.69 306.332C1004.95 308.178 1003.88 310.775 1003.47 314.125H1022V313.646C1021.82 310.434 1020.95 307.95 1019.4 306.195C1017.85 304.418 1015.75 303.529 1013.11 303.529ZM1053.55 304.691C1052.59 304.532 1051.55 304.452 1050.44 304.452C1046.29 304.452 1043.47 306.218 1041.99 309.75V336H1035.67V299.018H1041.82L1041.92 303.29C1044 299.986 1046.94 298.334 1050.74 298.334C1051.97 298.334 1052.91 298.493 1053.55 298.812V304.691Z" fill="black"/>
<defs>
<clipPath id="clip0">
<rect width="436.901" height="476.911" fill="white"/>
</clipPath>
</defs>
</svg>
